	<svg xmlns="http://www.w3.org/2000/svg" version="1.2" baseProfile="tiny" viewBox="0 0 1000 1000">
		<metadata>Svg Vector Icons: http:&#x2F;&#x2F;www.onlinewebfonts.com&#x2F;icon</metadata>		<path d="M195 475H192c-21 0-38 17-38 38v3c0 21 17 38 38 38h3c15 0 28-9 34-21h84V496h-84C222 484 209 475 195 475z"/>		<path d="M971 466h-10l0-10c0 0 0 0 0-1l0 0V80c0-29-24-53-53-53H503c-27 0-50 21-52 47H112c-30 0-55 25-55 55V917c0 0 0 1 0 1H10v55h102 459H683v-54h-57c0 0 0 0 0-1l0-410h283H990v-42L971 466 971 466zM492 253V79v-10h10 190 10v10 174 10h-10H502h-10V253zM572 918H110V129h341v326l0 0c0 0 0 0 0 1l0 10h-10 -19v42h81 69V918L572 918zM702 296v159 10h-10H502h-10v-10V296v-10h10 190 10V296zM920 296v159 10h-10H735h-10v-10V296v-10h10 176 10V296L920 296zM920 79v174 10h-10H735h-10v-10V79v-10h10 176 10V79L920 79z"/>	</svg>